<svg id="visual" viewBox="0 0 960 300" width="960" height="300" xmlns="http://www.w3.org/2000/svg" xmlns:xlink="http://www.w3.org/1999/xlink" version="1.1"><rect x="0" y="0" width="960" height="300" fill="#dd3f31"></rect><path d="M0 93L22.8 94.7C45.7 96.3 91.3 99.7 137 104.2C182.7 108.7 228.3 114.3 274 117.2C319.7 120 365.3 120 411.2 115.5C457 111 503 102 548.8 101.5C594.7 101 640.3 109 686 113.8C731.7 118.7 777.3 120.3 823 117C868.7 113.7 914.3 105.3 937.2 101.2L960 97L960 0L937.2 0C914.3 0 868.7 0 823 0C777.3 0 731.7 0 686 0C640.3 0 594.7 0 548.8 0C503 0 457 0 411.2 0C365.3 0 319.7 0 274 0C228.3 0 182.7 0 137 0C91.3 0 45.7 0 22.8 0L0 0Z" fill="#ff1f00"></path><path d="M0 83L22.8 81.7C45.7 80.3 91.3 77.7 137 78.8C182.7 80 228.3 85 274 83C319.7 81 365.3 72 411.2 69.7C457 67.3 503 71.7 548.8 71.3C594.7 71 640.3 66 686 65.2C731.7 64.3 777.3 67.7 823 69C868.7 70.3 914.3 69.7 937.2 69.3L960 69L960 0L937.2 0C914.3 0 868.7 0 823 0C777.3 0 731.7 0 686 0C640.3 0 594.7 0 548.8 0C503 0 457 0 411.2 0C365.3 0 319.7 0 274 0C228.3 0 182.7 0 137 0C91.3 0 45.7 0 22.8 0L0 0Z" fill="#1907e6"></path><path d="M0 43L22.8 46C45.7 49 91.3 55 137 56.8C182.7 58.7 228.3 56.3 274 55.5C319.7 54.7 365.3 55.3 411.2 57.3C457 59.3 503 62.7 548.8 61.8C594.7 61 640.3 56 686 56.5C731.7 57 777.3 63 823 66.8C868.7 70.7 914.3 72.3 937.2 73.2L960 74L960 0L937.2 0C914.3 0 868.7 0 823 0C777.3 0 731.7 0 686 0C640.3 0 594.7 0 548.8 0C503 0 457 0 411.2 0C365.3 0 319.7 0 274 0C228.3 0 182.7 0 137 0C91.3 0 45.7 0 22.8 0L0 0Z" fill="#1907e6"></path><path d="M0 31L22.8 32.5C45.7 34 91.3 37 137 38.8C182.7 40.7 228.3 41.3 274 43.7C319.7 46 365.3 50 411.2 50.5C457 51 503 48 548.8 48.5C594.7 49 640.3 53 686 54.5C731.7 56 777.3 55 823 54.3C868.7 53.7 914.3 53.3 937.2 53.2L960 53L960 0L937.2 0C914.3 0 868.7 0 823 0C777.3 0 731.7 0 686 0C640.3 0 594.7 0 548.8 0C503 0 457 0 411.2 0C365.3 0 319.7 0 274 0C228.3 0 182.7 0 137 0C91.3 0 45.7 0 22.8 0L0 0Z" fill="#1907e6"></path><path d="M0 22L22.8 22.2C45.7 22.3 91.3 22.7 137 22.5C182.7 22.3 228.3 21.7 274 20.5C319.7 19.3 365.3 17.7 411.2 16.7C457 15.7 503 15.3 548.8 17C594.7 18.7 640.3 22.3 686 25.3C731.7 28.3 777.3 30.7 823 28.5C868.7 26.3 914.3 19.7 937.2 16.3L960 13L960 0L937.2 0C914.3 0 868.7 0 823 0C777.3 0 731.7 0 686 0C640.3 0 594.7 0 548.8 0C503 0 457 0 411.2 0C365.3 0 319.7 0 274 0C228.3 0 182.7 0 137 0C91.3 0 45.7 0 22.8 0L0 0Z" fill="#0066ff"></path></svg>